<mxfile host="app.diagrams.net" modified="2020-11-03T02:26:40.064Z" agent="5.0 (Macintosh; Intel Mac OS X 10_15_7) AppleWebKit/537.36 (KHTML, like Gecko) Chrome/86.0.4240.111 Safari/537.36" etag="Jdq9YhSfYpPQxXFcOcDl" version="13.8.6" type="github">
  <diagram id="9IDtrQogS0e140ZvsFRt" name="Page-1">
    <mxGraphModel dx="1259" dy="786" grid="1" gridSize="10" guides="1" tooltips="1" connect="1" arrows="1" fold="1" page="1" pageScale="1" pageWidth="827" pageHeight="1169" math="0" shadow="0">
      <root>
        <mxCell id="0" />
        <mxCell id="1" parent="0" />
        <mxCell id="BBTkmD1aVMYzDCpsNlBR-11" value="" style="edgeStyle=orthogonalEdgeStyle;rounded=0;orthogonalLoop=1;jettySize=auto;html=1;entryX=0;entryY=0.5;entryDx=0;entryDy=0;" edge="1" parent="1" source="BBTkmD1aVMYzDCpsNlBR-5" target="BBTkmD1aVMYzDCpsNlBR-12">
          <mxGeometry relative="1" as="geometry">
            <mxPoint x="413" y="220" as="targetPoint" />
          </mxGeometry>
        </mxCell>
        <mxCell id="BBTkmD1aVMYzDCpsNlBR-13" value="&lt;font color=&quot;#ff3333&quot;&gt;&lt;b&gt;提交审核&lt;/b&gt;&lt;/font&gt;" style="edgeLabel;html=1;align=center;verticalAlign=middle;resizable=0;points=[];" vertex="1" connectable="0" parent="BBTkmD1aVMYzDCpsNlBR-11">
          <mxGeometry x="-0.1667" y="2" relative="1" as="geometry">
            <mxPoint as="offset" />
          </mxGeometry>
        </mxCell>
        <mxCell id="BBTkmD1aVMYzDCpsNlBR-5" value="DRAFT" style="rounded=0;whiteSpace=wrap;html=1;" vertex="1" parent="1">
          <mxGeometry x="294" y="200" width="66" height="40" as="geometry" />
        </mxCell>
        <mxCell id="BBTkmD1aVMYzDCpsNlBR-6" value="" style="endArrow=classic;html=1;exitX=1;exitY=0;exitDx=0;exitDy=0;entryX=0;entryY=0.5;entryDx=0;entryDy=0;" edge="1" parent="1" source="BBTkmD1aVMYzDCpsNlBR-2" target="BBTkmD1aVMYzDCpsNlBR-5">
          <mxGeometry width="50" height="50" relative="1" as="geometry">
            <mxPoint x="200" y="440" as="sourcePoint" />
            <mxPoint x="250" y="390" as="targetPoint" />
          </mxGeometry>
        </mxCell>
        <mxCell id="BBTkmD1aVMYzDCpsNlBR-7" value="新增" style="edgeLabel;html=1;align=center;verticalAlign=middle;resizable=0;points=[];" vertex="1" connectable="0" parent="BBTkmD1aVMYzDCpsNlBR-6">
          <mxGeometry x="0.1827" y="-2" relative="1" as="geometry">
            <mxPoint as="offset" />
          </mxGeometry>
        </mxCell>
        <mxCell id="BBTkmD1aVMYzDCpsNlBR-8" value="" style="group" vertex="1" connectable="0" parent="1">
          <mxGeometry x="830" y="260" width="75" height="60" as="geometry" />
        </mxCell>
        <mxCell id="BBTkmD1aVMYzDCpsNlBR-1" value="" style="ellipse;html=1;shape=endState;fillColor=#000000;strokeColor=#ff0000;" vertex="1" parent="BBTkmD1aVMYzDCpsNlBR-8">
          <mxGeometry x="22.5" y="30" width="30" height="30" as="geometry" />
        </mxCell>
        <mxCell id="BBTkmD1aVMYzDCpsNlBR-4" value="DELETED" style="text;html=1;strokeColor=none;fillColor=none;align=center;verticalAlign=middle;whiteSpace=wrap;rounded=0;" vertex="1" parent="BBTkmD1aVMYzDCpsNlBR-8">
          <mxGeometry width="75" height="20" as="geometry" />
        </mxCell>
        <mxCell id="BBTkmD1aVMYzDCpsNlBR-9" value="" style="group" vertex="1" connectable="0" parent="1">
          <mxGeometry x="165" y="260" width="40" height="60" as="geometry" />
        </mxCell>
        <mxCell id="BBTkmD1aVMYzDCpsNlBR-2" value="" style="ellipse;fillColor=#000000;strokeColor=none;" vertex="1" parent="BBTkmD1aVMYzDCpsNlBR-9">
          <mxGeometry x="5" y="30" width="30" height="30" as="geometry" />
        </mxCell>
        <mxCell id="BBTkmD1aVMYzDCpsNlBR-3" value="NEW" style="text;html=1;strokeColor=none;fillColor=none;align=center;verticalAlign=middle;whiteSpace=wrap;rounded=0;" vertex="1" parent="BBTkmD1aVMYzDCpsNlBR-9">
          <mxGeometry width="40" height="20" as="geometry" />
        </mxCell>
        <mxCell id="BBTkmD1aVMYzDCpsNlBR-15" value="" style="edgeStyle=orthogonalEdgeStyle;rounded=0;orthogonalLoop=1;jettySize=auto;html=1;" edge="1" parent="1" source="BBTkmD1aVMYzDCpsNlBR-12" target="BBTkmD1aVMYzDCpsNlBR-14">
          <mxGeometry relative="1" as="geometry" />
        </mxCell>
        <mxCell id="BBTkmD1aVMYzDCpsNlBR-16" value="上线" style="edgeLabel;html=1;align=center;verticalAlign=middle;resizable=0;points=[];" vertex="1" connectable="0" parent="BBTkmD1aVMYzDCpsNlBR-15">
          <mxGeometry x="-0.0937" y="-1" relative="1" as="geometry">
            <mxPoint as="offset" />
          </mxGeometry>
        </mxCell>
        <mxCell id="BBTkmD1aVMYzDCpsNlBR-45" value="" style="edgeStyle=orthogonalEdgeStyle;rounded=0;orthogonalLoop=1;jettySize=auto;html=1;exitX=0.424;exitY=0;exitDx=0;exitDy=0;exitPerimeter=0;" edge="1" parent="1" source="BBTkmD1aVMYzDCpsNlBR-12">
          <mxGeometry relative="1" as="geometry">
            <mxPoint x="478" y="200" as="sourcePoint" />
            <mxPoint x="325" y="160" as="targetPoint" />
            <Array as="points">
              <mxPoint x="478" y="160" />
            </Array>
          </mxGeometry>
        </mxCell>
        <mxCell id="BBTkmD1aVMYzDCpsNlBR-48" value="&lt;b&gt;&lt;font color=&quot;#ff3333&quot;&gt;取消审核&lt;/font&gt;&lt;/b&gt;" style="edgeLabel;html=1;align=center;verticalAlign=middle;resizable=0;points=[];" vertex="1" connectable="0" parent="BBTkmD1aVMYzDCpsNlBR-45">
          <mxGeometry x="0.0777" y="-1" relative="1" as="geometry">
            <mxPoint as="offset" />
          </mxGeometry>
        </mxCell>
        <mxCell id="BBTkmD1aVMYzDCpsNlBR-12" value="AUDIT" style="rounded=0;whiteSpace=wrap;html=1;" vertex="1" parent="1">
          <mxGeometry x="450" y="200" width="66" height="40" as="geometry" />
        </mxCell>
        <mxCell id="BBTkmD1aVMYzDCpsNlBR-19" value="" style="edgeStyle=orthogonalEdgeStyle;rounded=0;orthogonalLoop=1;jettySize=auto;html=1;" edge="1" parent="1" source="BBTkmD1aVMYzDCpsNlBR-14" target="BBTkmD1aVMYzDCpsNlBR-18">
          <mxGeometry relative="1" as="geometry" />
        </mxCell>
        <mxCell id="BBTkmD1aVMYzDCpsNlBR-20" value="下线" style="edgeLabel;html=1;align=center;verticalAlign=middle;resizable=0;points=[];" vertex="1" connectable="0" parent="BBTkmD1aVMYzDCpsNlBR-19">
          <mxGeometry x="-0.0741" relative="1" as="geometry">
            <mxPoint as="offset" />
          </mxGeometry>
        </mxCell>
        <mxCell id="BBTkmD1aVMYzDCpsNlBR-32" value="" style="edgeStyle=orthogonalEdgeStyle;rounded=0;orthogonalLoop=1;jettySize=auto;html=1;" edge="1" parent="1" source="BBTkmD1aVMYzDCpsNlBR-14">
          <mxGeometry relative="1" as="geometry">
            <mxPoint x="740" y="305" as="targetPoint" />
            <Array as="points">
              <mxPoint x="613" y="305" />
            </Array>
          </mxGeometry>
        </mxCell>
        <mxCell id="BBTkmD1aVMYzDCpsNlBR-38" value="删除" style="edgeLabel;html=1;align=center;verticalAlign=middle;resizable=0;points=[];" vertex="1" connectable="0" parent="BBTkmD1aVMYzDCpsNlBR-32">
          <mxGeometry x="-0.6979" relative="1" as="geometry">
            <mxPoint as="offset" />
          </mxGeometry>
        </mxCell>
        <mxCell id="BBTkmD1aVMYzDCpsNlBR-43" value="" style="edgeStyle=orthogonalEdgeStyle;rounded=0;orthogonalLoop=1;jettySize=auto;html=1;entryX=0.5;entryY=0;entryDx=0;entryDy=0;" edge="1" parent="1" source="BBTkmD1aVMYzDCpsNlBR-14" target="BBTkmD1aVMYzDCpsNlBR-5">
          <mxGeometry relative="1" as="geometry">
            <mxPoint x="613" y="130" as="targetPoint" />
            <Array as="points">
              <mxPoint x="613" y="120" />
              <mxPoint x="327" y="120" />
            </Array>
          </mxGeometry>
        </mxCell>
        <mxCell id="BBTkmD1aVMYzDCpsNlBR-46" value="编辑(new version)" style="edgeLabel;html=1;align=center;verticalAlign=middle;resizable=0;points=[];" vertex="1" connectable="0" parent="BBTkmD1aVMYzDCpsNlBR-43">
          <mxGeometry x="-0.0987" y="1" relative="1" as="geometry">
            <mxPoint as="offset" />
          </mxGeometry>
        </mxCell>
        <mxCell id="BBTkmD1aVMYzDCpsNlBR-14" value="RUNNING" style="rounded=0;whiteSpace=wrap;html=1;" vertex="1" parent="1">
          <mxGeometry x="580" y="200" width="66" height="40" as="geometry" />
        </mxCell>
        <mxCell id="BBTkmD1aVMYzDCpsNlBR-30" value="" style="edgeStyle=orthogonalEdgeStyle;rounded=0;orthogonalLoop=1;jettySize=auto;html=1;entryX=0;entryY=0.5;entryDx=0;entryDy=0;exitX=0.5;exitY=1;exitDx=0;exitDy=0;" edge="1" parent="1" source="BBTkmD1aVMYzDCpsNlBR-18" target="BBTkmD1aVMYzDCpsNlBR-1">
          <mxGeometry relative="1" as="geometry">
            <mxPoint x="733" y="310" as="targetPoint" />
            <Array as="points">
              <mxPoint x="733" y="305" />
            </Array>
          </mxGeometry>
        </mxCell>
        <mxCell id="BBTkmD1aVMYzDCpsNlBR-39" value="删除" style="edgeLabel;html=1;align=center;verticalAlign=middle;resizable=0;points=[];" vertex="1" connectable="0" parent="BBTkmD1aVMYzDCpsNlBR-30">
          <mxGeometry x="-0.664" y="-1" relative="1" as="geometry">
            <mxPoint as="offset" />
          </mxGeometry>
        </mxCell>
        <mxCell id="BBTkmD1aVMYzDCpsNlBR-41" value="" style="edgeStyle=orthogonalEdgeStyle;rounded=0;orthogonalLoop=1;jettySize=auto;html=1;" edge="1" parent="1" source="BBTkmD1aVMYzDCpsNlBR-18">
          <mxGeometry relative="1" as="geometry">
            <mxPoint x="610" y="120" as="targetPoint" />
            <Array as="points">
              <mxPoint x="733" y="120" />
            </Array>
          </mxGeometry>
        </mxCell>
        <mxCell id="BBTkmD1aVMYzDCpsNlBR-47" value="编辑(new version)" style="edgeLabel;html=1;align=center;verticalAlign=middle;resizable=0;points=[];" vertex="1" connectable="0" parent="BBTkmD1aVMYzDCpsNlBR-41">
          <mxGeometry x="-0.2217" y="40" relative="1" as="geometry">
            <mxPoint as="offset" />
          </mxGeometry>
        </mxCell>
        <mxCell id="BBTkmD1aVMYzDCpsNlBR-18" value="OFFLINE" style="rounded=0;whiteSpace=wrap;html=1;" vertex="1" parent="1">
          <mxGeometry x="700" y="200" width="66" height="40" as="geometry" />
        </mxCell>
        <mxCell id="BBTkmD1aVMYzDCpsNlBR-34" value="" style="edgeStyle=orthogonalEdgeStyle;rounded=0;orthogonalLoop=1;jettySize=auto;html=1;" edge="1" parent="1">
          <mxGeometry relative="1" as="geometry">
            <mxPoint x="480" y="240" as="sourcePoint" />
            <mxPoint x="620" y="305" as="targetPoint" />
            <Array as="points">
              <mxPoint x="480" y="305" />
            </Array>
          </mxGeometry>
        </mxCell>
        <mxCell id="BBTkmD1aVMYzDCpsNlBR-37" value="删除" style="edgeLabel;html=1;align=center;verticalAlign=middle;resizable=0;points=[];" vertex="1" connectable="0" parent="BBTkmD1aVMYzDCpsNlBR-34">
          <mxGeometry x="-0.7268" y="-1" relative="1" as="geometry">
            <mxPoint as="offset" />
          </mxGeometry>
        </mxCell>
        <mxCell id="BBTkmD1aVMYzDCpsNlBR-35" value="" style="edgeStyle=orthogonalEdgeStyle;rounded=0;orthogonalLoop=1;jettySize=auto;html=1;" edge="1" parent="1">
          <mxGeometry relative="1" as="geometry">
            <mxPoint x="330" y="240" as="sourcePoint" />
            <mxPoint x="490" y="305" as="targetPoint" />
            <Array as="points">
              <mxPoint x="330" y="305" />
            </Array>
          </mxGeometry>
        </mxCell>
        <mxCell id="BBTkmD1aVMYzDCpsNlBR-36" value="删除" style="edgeLabel;html=1;align=center;verticalAlign=middle;resizable=0;points=[];" vertex="1" connectable="0" parent="BBTkmD1aVMYzDCpsNlBR-35">
          <mxGeometry x="-0.7511" y="-1" relative="1" as="geometry">
            <mxPoint as="offset" />
          </mxGeometry>
        </mxCell>
      </root>
    </mxGraphModel>
  </diagram>
</mxfile>
